<?xml version="1.0" encoding="UTF-8"?>
<svg id="Layer_2" data-name="Layer 2" xmlns="http://www.w3.org/2000/svg" xmlns:xlink="http://www.w3.org/1999/xlink" viewBox="0 0 1920 1080">
  <defs>
    <style>
      .cls-1 {
        fill: none;
      }

      .cls-2 {
        fill: #2f4763;
      }

      .cls-3 {
        opacity: .15;
      }

      .cls-4 {
        clip-path: url(#clippath);
      }
    </style>
    <clipPath id="clippath">
      <rect class="cls-1" width="1920" height="1080"/>
    </clipPath>
  </defs>
  <g id="Layer_1-2" data-name="Layer 1">
    <g>
      <rect class="cls-2" width="1920" height="1080"/>
      <g class="cls-3">
        <g class="cls-4">
          <g>
            <g>
              <g>
                <g>
                  <path d="M514.92,71.25c1.65,1.65,3.39,1.57,5.2-.25l25.74-25.74c1.82-1.82,1.89-3.55.25-5.2l-12.62-12.62c-2.68-2.68-5.32-4.94-7.92-6.79.02-.01.04-.03.05-.04-.78-.54-1.58-1.04-2.38-1.51-2.69-1.67-5.34-2.89-7.94-3.66-3.59-1.06-7.39-1.49-11.38-1.28-9.03.23-18,3.78-24.9,10.68-1.09,1.09-2.09,2.23-3.01,3.42-.4.52-.63,1.13-.68,1.75-.08.93.25,1.89.95,2.59l1.28,1.28h0s37.37,37.37,37.37,37.37Z"/>
                  <path d="M175.51,172.1c-1.65-1.65-1.48-3.46.5-5.44l25.74-25.74c1.81-1.81,3.55-1.9,5.2-.25l43.89,43.89L384.98,50.42l-92.91-92.91c-1.65-1.65-1.65-3.3,0-4.95l25.99-25.99c1.81-1.81,3.55-1.9,5.2-.25l168.29,168.29c1.65,1.65,1.56,3.38-.25,5.2l-25.99,25.99c-1.65,1.65-3.3,1.65-4.95,0l-48.16-48.16-134.15,134.15,48.16,48.16c1.65,1.65,1.56,3.38-.25,5.2l-25.74,25.74c-1.98,1.98-3.79,2.15-5.44.5l-119.28-119.28Z"/>
                </g>
                <path d="M178.74,112.47c1.65,1.65,1.48,3.46-.5,5.44l-25.74,25.74c-1.81,1.81-3.55,1.9-5.2.25l-43.89-43.89L-30.74,234.15l92.91,92.91c1.65,1.65,1.65,3.3,0,4.95l-25.99,25.99c-1.81,1.81-3.55,1.9-5.2.25l-168.29-168.29c-1.65-1.65-1.56-3.38.25-5.2l25.99-25.99c1.65-1.65,3.3-1.65,4.95,0l48.16,48.16L76.19,72.78,28.02,24.62c-1.65-1.65-1.56-3.38.25-5.2L54.01-6.32c1.98-1.98,3.79-2.15,5.44-.5l119.28,119.28Z"/>
              </g>
              <g>
                <path d="M129.76,456.41c1.65,1.65,3.39,1.57,5.2-.25l25.74-25.74c1.82-1.82,1.89-3.55.25-5.2l-12.62-12.62c-2.68-2.68-5.32-4.94-7.92-6.79.02-.01.04-.03.05-.04-.78-.54-1.58-1.04-2.38-1.51-2.69-1.67-5.34-2.89-7.94-3.66-3.59-1.06-7.39-1.49-11.38-1.28-9.03.23-18,3.78-24.9,10.68-1.09,1.09-2.09,2.23-3.01,3.42-.4.52-.63,1.13-.68,1.75-.08.93.25,1.89.95,2.59l1.28,1.28h0s37.37,37.37,37.37,37.37Z"/>
                <path d="M-209.65,557.26c-1.65-1.65-1.48-3.46.5-5.44l25.74-25.74c1.81-1.81,3.55-1.9,5.2-.25l43.89,43.89L-.18,435.58l-92.91-92.91c-1.65-1.65-1.65-3.3,0-4.95l25.99-25.99c1.81-1.81,3.55-1.9,5.2-.25l168.29,168.29c1.65,1.65,1.56,3.38-.25,5.2l-25.99,25.99c-1.65,1.65-3.3,1.65-4.95,0l-48.16-48.16-134.15,134.15,48.16,48.16c1.65,1.65,1.56,3.38-.25,5.2l-25.74,25.74c-1.98,1.98-3.79,2.15-5.44.5l-119.28-119.28Z"/>
              </g>
            </g>
            <g>
              <g>
                <path d="M855.82,82.09c-1.65-1.65-1.48-3.46.5-5.44l25.74-25.74c1.81-1.81,3.55-1.9,5.2-.25l43.89,43.89,134.15-134.15-92.91-92.91c-1.65-1.65-1.65-3.3,0-4.95l25.99-25.99c1.81-1.81,3.55-1.9,5.2-.25L1171.86,4.61c1.65,1.65,1.56,3.38-.25,5.2l-25.99,25.99c-1.65,1.65-3.3,1.65-4.95,0l-48.16-48.16-134.15,134.15,48.16,48.16c1.65,1.65,1.56,3.38-.25,5.2l-25.74,25.74c-1.98,1.98-3.79,2.15-5.44.5l-119.28-119.28Z"/>
                <g>
                  <path d="M519.63,123.31c-1.65-1.65-3.39-1.57-5.2.25l-25.74,25.74c-1.82,1.82-1.89,3.55-.25,5.2l12.62,12.62c2.68,2.68,5.32,4.94,7.92,6.79-.02.01-.04.03-.05.04.78.54,1.58,1.04,2.38,1.51,2.69,1.67,5.34,2.89,7.94,3.66,3.59,1.06,7.39,1.49,11.38,1.28,9.03-.23,18-3.78,24.9-10.68,1.09-1.09,2.09-2.23,3.01-3.42.4-.52.63-1.13.68-1.75.08-.93-.25-1.89-.95-2.59l-1.28-1.28h0s-37.37-37.37-37.37-37.37Z"/>
                  <path d="M859.05,22.45c1.65,1.65,1.48,3.46-.5,5.44l-25.74,25.74c-1.81,1.81-3.55,1.9-5.2.25l-43.89-43.89-134.15,134.15,92.91,92.91c1.65,1.65,1.65,3.3,0,4.95l-25.99,25.99c-1.81,1.81-3.55,1.9-5.2.25l-168.29-168.29c-1.65-1.65-1.56-3.38.25-5.2l25.99-25.99c1.65-1.65,3.3-1.65,4.95,0l48.16,48.16L756.5-17.23l-48.16-48.16c-1.65-1.65-1.56-3.38.25-5.2l25.74-25.74c1.98-1.98,3.79-2.15,5.44-.5l119.28,119.28Z"/>
                </g>
              </g>
              <g>
                <g>
                  <path d="M810.07,366.39c1.65,1.65,3.39,1.57,5.2-.25l25.74-25.74c1.82-1.82,1.89-3.55.25-5.2l-12.62-12.62c-2.68-2.68-5.32-4.94-7.92-6.79.02-.01.04-.03.05-.04-.78-.54-1.58-1.04-2.38-1.51-2.69-1.67-5.34-2.89-7.94-3.66-3.59-1.06-7.39-1.49-11.38-1.28-9.03.23-18,3.78-24.9,10.68-1.09,1.09-2.09,2.23-3.01,3.42-.4.52-.63,1.13-.68,1.75-.08.93.25,1.89.95,2.59l1.28,1.28h0s37.37,37.37,37.37,37.37Z"/>
                  <path d="M470.66,467.25c-1.65-1.65-1.48-3.46.5-5.44l25.74-25.74c1.81-1.81,3.55-1.9,5.2-.25l43.89,43.89,134.15-134.15-92.91-92.91c-1.65-1.65-1.65-3.3,0-4.95l25.99-25.99c1.81-1.81,3.55-1.9,5.2-.25l168.29,168.29c1.65,1.65,1.56,3.38-.25,5.2l-25.99,25.99c-1.65,1.65-3.3,1.65-4.95,0l-48.16-48.16-134.15,134.15,48.16,48.16c1.65,1.65,1.56,3.38-.25,5.2l-25.74,25.74c-1.98,1.98-3.79,2.15-5.44.5l-119.28-119.28Z"/>
                </g>
                <g>
                  <path d="M134.47,508.47c-1.65-1.65-3.39-1.57-5.2.25l-25.74,25.74c-1.82,1.82-1.89,3.55-.25,5.2l12.62,12.62c2.68,2.68,5.32,4.94,7.92,6.79-.02.01-.04.03-.05.04.78.54,1.58,1.04,2.38,1.51,2.69,1.67,5.34,2.89,7.94,3.66,3.59,1.06,7.39,1.49,11.38,1.28,9.03-.23,18-3.78,24.9-10.68,1.09-1.09,2.09-2.23,3.01-3.42.4-.52.63-1.13.68-1.75.08-.93-.25-1.89-.95-2.59l-1.28-1.28h0s-37.37-37.37-37.37-37.37Z"/>
                  <path d="M473.89,407.62c1.65,1.65,1.48,3.46-.5,5.44l-25.74,25.74c-1.81,1.81-3.55,1.9-5.2.25l-43.89-43.89-134.15,134.15,92.91,92.91c1.65,1.65,1.65,3.3,0,4.95l-25.99,25.99c-1.81,1.81-3.55,1.9-5.2.25l-168.29-168.29c-1.65-1.65-1.56-3.38.25-5.2l25.99-25.99c1.65-1.65,3.3-1.65,4.95,0l48.16,48.16,134.15-134.15-48.16-48.16c-1.65-1.65-1.56-3.38.25-5.2l25.74-25.74c1.98-1.98,3.79-2.15,5.44-.5l119.28,119.28Z"/>
                </g>
              </g>
              <g>
                <g>
                  <path d="M424.91,751.56c1.65,1.65,3.39,1.57,5.2-.25l25.74-25.74c1.82-1.82,1.89-3.55.25-5.2l-12.62-12.62c-2.68-2.68-5.32-4.94-7.92-6.79.02-.01.04-.03.05-.04-.78-.54-1.58-1.04-2.38-1.51-2.69-1.67-5.34-2.89-7.94-3.66-3.59-1.06-7.39-1.49-11.38-1.28-9.03.23-18,3.78-24.9,10.68-1.09,1.09-2.09,2.23-3.01,3.42-.4.52-.63,1.13-.68,1.75-.08.93.25,1.89.95,2.59l1.28,1.28h0s37.37,37.37,37.37,37.37Z"/>
                  <path d="M85.49,852.41c-1.65-1.65-1.48-3.46.5-5.44l25.74-25.74c1.81-1.81,3.55-1.9,5.2-.25l43.89,43.89,134.15-134.15-92.91-92.91c-1.65-1.65-1.65-3.3,0-4.95l25.99-25.99c1.81-1.81,3.55-1.9,5.2-.25l168.29,168.29c1.65,1.65,1.56,3.38-.25,5.2l-25.99,25.99c-1.65,1.65-3.3,1.65-4.95,0l-48.16-48.16-134.15,134.15,48.16,48.16c1.65,1.65,1.56,3.38-.25,5.2l-25.74,25.74c-1.98,1.98-3.79,2.15-5.44.5l-119.28-119.28Z"/>
                </g>
                <path d="M88.72,792.78c1.65,1.65,1.48,3.46-.5,5.44l-25.74,25.74c-1.81,1.81-3.55,1.9-5.2.25l-43.89-43.89-134.15,134.15,92.91,92.91c1.65,1.65,1.65,3.3,0,4.95l-25.99,25.99c-1.81,1.81-3.55,1.9-5.2.25l-168.29-168.29c-1.65-1.65-1.56-3.38.25-5.2l25.99-25.99c1.65-1.65,3.3-1.65,4.95,0l48.16,48.16L-13.83,753.09l-48.16-48.16c-1.65-1.65-1.56-3.38.25-5.2l25.74-25.74c1.98-1.98,3.79-2.15,5.44-.5l119.28,119.28Z"/>
              </g>
              <g>
                <path d="M39.75,1136.72c1.65,1.65,3.39,1.57,5.2-.25l25.74-25.74c1.82-1.82,1.89-3.55.25-5.2l-12.62-12.62c-2.68-2.68-5.32-4.94-7.92-6.79.02-.01.04-.03.05-.04-.78-.54-1.58-1.04-2.38-1.51-2.69-1.67-5.34-2.89-7.94-3.66-3.59-1.06-7.39-1.49-11.38-1.28-9.03.23-18,3.78-24.9,10.68-1.09,1.09-2.09,2.23-3.01,3.42-.4.52-.63,1.13-.68,1.75-.08.93.25,1.89.95,2.59l1.28,1.28h0s37.37,37.37,37.37,37.37Z"/>
                <path d="M-299.67,1237.57c-1.65-1.65-1.48-3.46.5-5.44l25.74-25.74c1.81-1.81,3.55-1.9,5.2-.25l43.89,43.89,134.15-134.15-92.91-92.91c-1.65-1.65-1.65-3.3,0-4.95l25.99-25.99c1.81-1.81,3.55-1.9,5.2-.25l168.29,168.29c1.65,1.65,1.56,3.38-.25,5.2l-25.99,25.99c-1.65,1.65-3.3,1.65-4.95,0l-48.16-48.16-134.15,134.15,48.16,48.16c1.65,1.65,1.56,3.38-.25,5.2l-25.74,25.74c-1.98,1.98-3.79,2.15-5.44.5l-119.28-119.28Z"/>
              </g>
            </g>
            <g>
              <g>
                <path d="M1536.13-7.93c-1.65-1.65-1.48-3.46.5-5.44l25.74-25.74c1.81-1.81,3.55-1.9,5.2-.25l43.89,43.89,134.15-134.15-92.91-92.91c-1.65-1.65-1.65-3.3,0-4.95l25.99-25.99c1.81-1.81,3.55-1.9,5.2-.25l168.29,168.29c1.65,1.65,1.56,3.38-.25,5.2l-25.99,25.99c-1.65,1.65-3.3,1.65-4.95,0l-48.16-48.16-134.15,134.15,48.16,48.16c1.65,1.65,1.56,3.38-.25,5.2l-25.74,25.74c-1.98,1.98-3.79,2.15-5.44.5l-119.28-119.28Z"/>
                <g>
                  <path d="M1199.94,33.3c-1.65-1.65-3.39-1.57-5.2.25l-25.74,25.74c-1.82,1.82-1.89,3.55-.25,5.2l12.62,12.62c2.68,2.68,5.32,4.94,7.92,6.79-.02.01-.04.03-.05.04.78.54,1.58,1.04,2.38,1.51,2.69,1.67,5.34,2.89,7.94,3.66,3.59,1.06,7.39,1.49,11.38,1.28,9.03-.23,18-3.78,24.9-10.68,1.09-1.09,2.09-2.23,3.01-3.42.4-.52.63-1.13.68-1.75.08-.93-.25-1.89-.95-2.59l-1.28-1.28h0s-37.37-37.37-37.37-37.37Z"/>
                  <path d="M1539.36-67.56c1.65,1.65,1.48,3.46-.5,5.44l-25.74,25.74c-1.81,1.81-3.55,1.9-5.2.25l-43.89-43.89-134.15,134.15,92.91,92.91c1.65,1.65,1.65,3.3,0,4.95l-25.99,25.99c-1.81,1.81-3.55,1.9-5.2.25L1223.31,9.92c-1.65-1.65-1.56-3.38.25-5.2l25.99-25.99c1.65-1.65,3.3-1.65,4.95,0l48.16,48.16,134.15-134.15-48.16-48.16c-1.65-1.65-1.56-3.38.25-5.2l25.74-25.74c1.98-1.98,3.79-2.15,5.44-.5l119.28,119.28Z"/>
                </g>
              </g>
              <g>
                <g>
                  <path d="M1490.38,276.38c1.65,1.65,3.39,1.57,5.2-.25l25.74-25.74c1.82-1.82,1.89-3.55.25-5.2l-12.62-12.62c-2.68-2.68-5.32-4.94-7.92-6.79.02-.01.04-.03.05-.04-.78-.54-1.58-1.04-2.38-1.51-2.69-1.67-5.34-2.89-7.94-3.66-3.59-1.06-7.39-1.49-11.38-1.28-9.03.23-18,3.78-24.9,10.68-1.09,1.09-2.09,2.23-3.01,3.42-.4.52-.63,1.13-.68,1.75-.08.93.25,1.89.95,2.59l1.28,1.28h0s37.37,37.37,37.37,37.37Z"/>
                  <path d="M1150.97,377.24c-1.65-1.65-1.48-3.46.5-5.44l25.74-25.74c1.81-1.81,3.55-1.9,5.2-.25l43.89,43.89,134.15-134.15-92.91-92.91c-1.65-1.65-1.65-3.3,0-4.95l25.99-25.99c1.81-1.81,3.55-1.9,5.2-.25l168.29,168.29c1.65,1.65,1.56,3.38-.25,5.2l-25.99,25.99c-1.65,1.65-3.3,1.65-4.95,0l-48.16-48.16-134.15,134.15,48.16,48.16c1.65,1.65,1.56,3.38-.25,5.2l-25.74,25.74c-1.98,1.98-3.79,2.15-5.44.5l-119.28-119.28Z"/>
                </g>
                <g>
                  <path d="M814.78,418.46c-1.65-1.65-3.39-1.57-5.2.25l-25.74,25.74c-1.82,1.82-1.89,3.55-.25,5.2l12.62,12.62c2.68,2.68,5.32,4.94,7.92,6.79-.02.01-.04.03-.05.04.78.54,1.58,1.04,2.38,1.51,2.69,1.67,5.34,2.89,7.94,3.66,3.59,1.06,7.39,1.49,11.38,1.28,9.03-.23,18-3.78,24.9-10.68,1.09-1.09,2.09-2.23,3.01-3.42.4-.52.63-1.13.68-1.75.08-.93-.25-1.89-.95-2.59l-1.28-1.28h0s-37.37-37.37-37.37-37.37Z"/>
                  <path d="M1154.2,317.6c1.65,1.65,1.48,3.46-.5,5.44l-25.74,25.74c-1.81,1.81-3.55,1.9-5.2.25l-43.89-43.89-134.15,134.15,92.91,92.91c1.65,1.65,1.65,3.3,0,4.95l-25.99,25.99c-1.81,1.81-3.55,1.9-5.2.25l-168.29-168.29c-1.65-1.65-1.56-3.38.25-5.2l25.99-25.99c1.65-1.65,3.3-1.65,4.95,0l48.16,48.16,134.15-134.15-48.16-48.16c-1.65-1.65-1.56-3.38.25-5.2l25.74-25.74c1.98-1.98,3.79-2.15,5.44-.5l119.28,119.28Z"/>
                </g>
              </g>
              <g>
                <g>
                  <path d="M1105.22,661.54c1.65,1.65,3.39,1.57,5.2-.25l25.74-25.74c1.82-1.82,1.89-3.55.25-5.2l-12.62-12.62c-2.68-2.68-5.32-4.94-7.92-6.79.02-.01.04-.03.05-.04-.78-.54-1.58-1.04-2.38-1.51-2.69-1.67-5.34-2.89-7.94-3.66-3.59-1.06-7.39-1.49-11.38-1.28-9.03.23-18,3.78-24.9,10.68-1.09,1.09-2.09,2.23-3.01,3.42-.4.52-.63,1.13-.68,1.75-.08.93.25,1.89.95,2.59l1.28,1.28h0s37.37,37.37,37.37,37.37Z"/>
                  <path d="M765.8,762.4c-1.65-1.65-1.48-3.46.5-5.44l25.74-25.74c1.81-1.81,3.55-1.9,5.2-.25l43.89,43.89,134.15-134.15-92.91-92.91c-1.65-1.65-1.65-3.3,0-4.95l25.99-25.99c1.81-1.81,3.55-1.9,5.2-.25l168.29,168.29c1.65,1.65,1.56,3.38-.25,5.2l-25.99,25.99c-1.65,1.65-3.3,1.65-4.95,0l-48.16-48.16-134.15,134.15,48.16,48.16c1.65,1.65,1.56,3.38-.25,5.2l-25.74,25.74c-1.98,1.98-3.79,2.15-5.44.5l-119.28-119.28Z"/>
                </g>
                <g>
                  <path d="M429.62,803.62c-1.65-1.65-3.39-1.57-5.2.25l-25.74,25.74c-1.82,1.82-1.89,3.55-.25,5.2l12.62,12.62c2.68,2.68,5.32,4.94,7.92,6.79-.02.01-.04.03-.05.04.78.54,1.58,1.04,2.38,1.51,2.69,1.67,5.34,2.89,7.94,3.66,3.59,1.06,7.39,1.49,11.38,1.28,9.03-.23,18-3.78,24.9-10.68,1.09-1.09,2.09-2.23,3.01-3.42.4-.52.63-1.13.68-1.75.08-.93-.25-1.89-.95-2.59l-1.28-1.28h0s-37.37-37.37-37.37-37.37Z"/>
                  <path d="M769.03,702.76c1.65,1.65,1.48,3.46-.5,5.44l-25.74,25.74c-1.81,1.81-3.55,1.9-5.2.25l-43.89-43.89-134.15,134.15,92.91,92.91c1.65,1.65,1.65,3.3,0,4.95l-25.99,25.99c-1.81,1.81-3.55,1.9-5.2.25l-168.29-168.29c-1.65-1.65-1.56-3.38.25-5.2l25.99-25.99c1.65-1.65,3.3-1.65,4.95,0l48.16,48.16,134.15-134.15-48.16-48.16c-1.65-1.65-1.56-3.38.25-5.2l25.74-25.74c1.98-1.98,3.79-2.15,5.44-.5l119.28,119.28Z"/>
                </g>
              </g>
              <g>
                <g>
                  <path d="M720.06,1046.7c1.65,1.65,3.39,1.57,5.2-.25l25.74-25.74c1.82-1.82,1.89-3.55.25-5.2l-12.62-12.62c-2.68-2.68-5.32-4.94-7.92-6.79.02-.01.04-.03.05-.04-.78-.54-1.58-1.04-2.38-1.51-2.69-1.67-5.34-2.89-7.94-3.66-3.59-1.06-7.39-1.49-11.38-1.28-9.03.23-18,3.78-24.9,10.68-1.09,1.09-2.09,2.23-3.01,3.42-.4.52-.63,1.13-.68,1.75-.08.93.25,1.89.95,2.59l1.28,1.28h0s37.37,37.37,37.37,37.37Z"/>
                  <path d="M380.64,1147.56c-1.65-1.65-1.48-3.46.5-5.44l25.74-25.74c1.81-1.81,3.55-1.9,5.2-.25l43.89,43.89,134.15-134.15-92.91-92.91c-1.65-1.65-1.65-3.3,0-4.95l25.99-25.99c1.81-1.81,3.55-1.9,5.2-.25l168.29,168.29c1.65,1.65,1.56,3.38-.25,5.2l-25.99,25.99c-1.65,1.65-3.3,1.65-4.95,0l-48.16-48.16-134.15,134.15,48.16,48.16c1.65,1.65,1.56,3.38-.25,5.2l-25.74,25.74c-1.98,1.98-3.79,2.15-5.44.5l-119.28-119.28Z"/>
                </g>
                <path d="M383.87,1087.93c1.65,1.65,1.48,3.46-.5,5.44l-25.74,25.74c-1.81,1.81-3.55,1.9-5.2.25l-43.89-43.89-134.15,134.15,92.91,92.91c1.65,1.65,1.65,3.3,0,4.95l-25.99,25.99c-1.81,1.81-3.55,1.9-5.2.25l-168.29-168.29c-1.65-1.65-1.56-3.38.25-5.2l25.99-25.99c1.65-1.65,3.3-1.65,4.95,0l48.16,48.16,134.15-134.15-48.16-48.16c-1.65-1.65-1.56-3.38.25-5.2l25.74-25.74c1.98-1.98,3.79-2.15,5.44-.5l119.28,119.28Z"/>
              </g>
            </g>
            <g>
              <g>
                <path d="M1880.25-56.72c-1.65-1.65-3.39-1.57-5.2.25l-25.74,25.74c-1.82,1.82-1.89,3.55-.25,5.2l12.62,12.62c2.68,2.68,5.32,4.94,7.92,6.79-.02.01-.04.03-.05.04.78.54,1.58,1.04,2.38,1.51,2.69,1.67,5.34,2.89,7.94,3.66,3.59,1.06,7.39,1.49,11.38,1.28,9.03-.23,18-3.78,24.9-10.68,1.09-1.09,2.09-2.23,3.01-3.42.4-.52.63-1.13.68-1.75.08-.93-.25-1.89-.95-2.59l-1.28-1.28h0s-37.37-37.37-37.37-37.37Z"/>
                <path d="M2219.67-157.57c1.65,1.65,1.48,3.46-.5,5.44l-25.74,25.74c-1.81,1.81-3.55,1.9-5.2.25l-43.89-43.89-134.15,134.15,92.91,92.91c1.65,1.65,1.65,3.3,0,4.95l-25.99,25.99c-1.81,1.81-3.55,1.9-5.2.25l-168.29-168.29c-1.65-1.65-1.56-3.38.25-5.2l25.99-25.99c1.65-1.65,3.3-1.65,4.95,0l48.16,48.16,134.15-134.15-48.16-48.16c-1.65-1.65-1.56-3.38.25-5.2l25.74-25.74c1.98-1.98,3.79-2.15,5.44-.5l119.28,119.28Z"/>
              </g>
              <g>
                <path d="M1831.28,287.22c-1.65-1.65-1.48-3.46.5-5.44l25.74-25.74c1.81-1.81,3.55-1.9,5.2-.25l43.89,43.89,134.15-134.15-92.91-92.91c-1.65-1.65-1.65-3.3,0-4.95l25.99-25.99c1.81-1.81,3.55-1.9,5.2-.25l168.29,168.29c1.65,1.65,1.56,3.38-.25,5.2l-25.99,25.99c-1.65,1.65-3.3,1.65-4.95,0l-48.16-48.16-134.15,134.15,48.16,48.16c1.65,1.65,1.56,3.38-.25,5.2l-25.74,25.74c-1.98,1.98-3.79,2.15-5.44.5l-119.28-119.28Z"/>
                <g>
                  <path d="M1495.09,328.44c-1.65-1.65-3.39-1.57-5.2.25l-25.74,25.74c-1.82,1.82-1.89,3.55-.25,5.2l12.62,12.62c2.68,2.68,5.32,4.94,7.92,6.79-.02.01-.04.03-.05.04.78.54,1.58,1.04,2.38,1.51,2.69,1.67,5.34,2.89,7.94,3.66,3.59,1.06,7.39,1.49,11.38,1.28,9.03-.23,18-3.78,24.9-10.68,1.09-1.09,2.09-2.23,3.01-3.42.4-.52.63-1.13.68-1.75.08-.93-.25-1.89-.95-2.59l-1.28-1.28h0s-37.37-37.37-37.37-37.37Z"/>
                  <path d="M1834.51,227.59c1.65,1.65,1.48,3.46-.5,5.44l-25.74,25.74c-1.81,1.81-3.55,1.9-5.2.25l-43.89-43.89-134.15,134.15,92.91,92.91c1.65,1.65,1.65,3.3,0,4.95l-25.99,25.99c-1.81,1.81-3.55,1.9-5.2.25l-168.29-168.29c-1.65-1.65-1.56-3.38.25-5.2l25.99-25.99c1.65-1.65,3.3-1.65,4.95,0l48.16,48.16,134.15-134.15-48.16-48.16c-1.65-1.65-1.56-3.38.25-5.2l25.74-25.74c1.98-1.98,3.79-2.15,5.44-.5l119.28,119.28Z"/>
                </g>
              </g>
              <g>
                <g>
                  <path d="M1785.53,571.53c1.65,1.65,3.39,1.57,5.2-.25l25.74-25.74c1.82-1.82,1.89-3.55.25-5.2l-12.62-12.62c-2.68-2.68-5.32-4.94-7.92-6.79.02-.01.04-.03.05-.04-.78-.54-1.58-1.04-2.38-1.51-2.69-1.67-5.34-2.89-7.94-3.66-3.59-1.06-7.39-1.49-11.38-1.28-9.03.23-18,3.78-24.9,10.68-1.09,1.09-2.09,2.23-3.01,3.42-.4.52-.63,1.13-.68,1.75-.08.93.25,1.89.95,2.59l1.28,1.28h0s37.37,37.37,37.37,37.37Z"/>
                  <path d="M1446.11,672.38c-1.65-1.65-1.48-3.46.5-5.44l25.74-25.74c1.81-1.81,3.55-1.9,5.2-.25l43.89,43.89,134.15-134.15-92.91-92.91c-1.65-1.65-1.65-3.3,0-4.95l25.99-25.99c1.81-1.81,3.55-1.9,5.2-.25l168.29,168.29c1.65,1.65,1.56,3.38-.25,5.2l-25.99,25.99c-1.65,1.65-3.3,1.65-4.95,0l-48.16-48.16-134.15,134.15,48.16,48.16c1.65,1.65,1.56,3.38-.25,5.2l-25.74,25.74c-1.98,1.98-3.79,2.15-5.44.5l-119.28-119.28Z"/>
                </g>
                <g>
                  <path d="M1109.93,713.61c-1.65-1.65-3.39-1.57-5.2.25l-25.74,25.74c-1.82,1.82-1.89,3.55-.25,5.2l12.62,12.62c2.68,2.68,5.32,4.94,7.92,6.79-.02.01-.04.03-.05.04.78.54,1.58,1.04,2.38,1.51,2.69,1.67,5.34,2.89,7.94,3.66,3.59,1.06,7.39,1.49,11.38,1.28,9.03-.23,18-3.78,24.9-10.68,1.09-1.09,2.09-2.23,3.01-3.42.4-.52.63-1.13.68-1.75.08-.93-.25-1.89-.95-2.59l-1.28-1.28h0s-37.37-37.37-37.37-37.37Z"/>
                  <path d="M1449.34,612.75c1.65,1.65,1.48,3.46-.5,5.44l-25.74,25.74c-1.81,1.81-3.55,1.9-5.2.25l-43.89-43.89-134.15,134.15,92.91,92.91c1.65,1.65,1.65,3.3,0,4.95l-25.99,25.99c-1.81,1.81-3.55,1.9-5.2.25l-168.29-168.29c-1.65-1.65-1.56-3.38.25-5.2l25.99-25.99c1.65-1.65,3.3-1.65,4.95,0l48.16,48.16,134.15-134.15-48.16-48.16c-1.65-1.65-1.56-3.38.25-5.2l25.74-25.74c1.98-1.98,3.79-2.15,5.44-.5l119.28,119.28Z"/>
                </g>
              </g>
              <g>
                <g>
                  <path d="M1400.37,956.69c1.65,1.65,3.39,1.57,5.2-.25l25.74-25.74c1.82-1.82,1.89-3.55.25-5.2l-12.62-12.62c-2.68-2.68-5.32-4.94-7.92-6.79.02-.01.04-.03.05-.04-.78-.54-1.58-1.04-2.38-1.51-2.69-1.67-5.34-2.89-7.94-3.66-3.59-1.06-7.39-1.49-11.38-1.28-9.03.23-18,3.78-24.9,10.68-1.09,1.09-2.09,2.23-3.01,3.42-.4.52-.63,1.13-.68,1.75-.08.93.25,1.89.95,2.59l1.28,1.28h0s37.37,37.37,37.37,37.37Z"/>
                  <path d="M1060.95,1057.55c-1.65-1.65-1.48-3.46.5-5.44l25.74-25.74c1.81-1.81,3.55-1.9,5.2-.25l43.89,43.89,134.15-134.15-92.91-92.91c-1.65-1.65-1.65-3.3,0-4.95l25.99-25.99c1.81-1.81,3.55-1.9,5.2-.25l168.29,168.29c1.65,1.65,1.56,3.38-.25,5.2l-25.99,25.99c-1.65,1.65-3.3,1.65-4.95,0l-48.16-48.16-134.15,134.15,48.16,48.16c1.65,1.65,1.56,3.38-.25,5.2l-25.74,25.74c-1.98,1.98-3.79,2.15-5.44.5l-119.28-119.28Z"/>
                </g>
                <path d="M1064.18,997.91c1.65,1.65,1.48,3.46-.5,5.44l-25.74,25.74c-1.81,1.81-3.55,1.9-5.2.25l-43.89-43.89-134.15,134.15,92.91,92.91c1.65,1.65,1.65,3.3,0,4.95l-25.99,25.99c-1.81,1.81-3.55,1.9-5.2.25l-168.29-168.29c-1.65-1.65-1.56-3.38.25-5.2l25.99-25.99c1.65-1.65,3.3-1.65,4.95,0l48.16,48.16,134.15-134.15-48.16-48.16c-1.65-1.65-1.56-3.38.25-5.2l25.74-25.74c1.98-1.98,3.79-2.15,5.44-.5l119.28,119.28Z"/>
              </g>
            </g>
            <g>
              <g>
                <path d="M1790.24,623.59c-1.65-1.65-3.39-1.57-5.2.25l-25.74,25.74c-1.82,1.82-1.89,3.55-.25,5.2l12.62,12.62c2.68,2.68,5.32,4.94,7.92,6.79-.02.01-.04.03-.05.04.78.54,1.58,1.04,2.38,1.51,2.69,1.67,5.34,2.89,7.94,3.66,3.59,1.06,7.39,1.49,11.38,1.28,9.03-.23,18-3.78,24.9-10.68,1.09-1.09,2.09-2.23,3.01-3.42.4-.52.63-1.13.68-1.75.08-.93-.25-1.89-.95-2.59l-1.28-1.28h0s-37.37-37.37-37.37-37.37Z"/>
                <path d="M2129.65,522.74c1.65,1.65,1.48,3.46-.5,5.44l-25.74,25.74c-1.81,1.81-3.55,1.9-5.2.25l-43.89-43.89-134.15,134.15,92.91,92.91c1.65,1.65,1.65,3.3,0,4.95l-25.99,25.99c-1.81,1.81-3.55,1.9-5.2.25l-168.29-168.29c-1.65-1.65-1.56-3.38.25-5.2l25.99-25.99c1.65-1.65,3.3-1.65,4.95,0l48.16,48.16,134.15-134.15-48.16-48.16c-1.65-1.65-1.56-3.38.25-5.2l25.74-25.74c1.98-1.98,3.79-2.15,5.44-.5l119.28,119.28Z"/>
              </g>
              <g>
                <path d="M1741.26,967.53c-1.65-1.65-1.48-3.46.5-5.44l25.74-25.74c1.81-1.81,3.55-1.9,5.2-.25l43.89,43.89,134.15-134.15-92.91-92.91c-1.65-1.65-1.65-3.3,0-4.95l25.99-25.99c1.81-1.81,3.55-1.9,5.2-.25l168.29,168.29c1.65,1.65,1.56,3.38-.25,5.2l-25.99,25.99c-1.65,1.65-3.3,1.65-4.95,0l-48.16-48.16-134.15,134.15,48.16,48.16c1.65,1.65,1.56,3.38-.25,5.2l-25.74,25.74c-1.98,1.98-3.79,2.15-5.44.5l-119.28-119.28Z"/>
                <g>
                  <path d="M1405.08,1008.75c-1.65-1.65-3.39-1.57-5.2.25l-25.74,25.74c-1.82,1.82-1.89,3.55-.25,5.2l12.62,12.62c2.68,2.68,5.32,4.94,7.92,6.79-.02.01-.04.03-.05.04.78.54,1.58,1.04,2.38,1.51,2.69,1.67,5.34,2.89,7.94,3.66,3.59,1.06,7.39,1.49,11.38,1.28,9.03-.23,18-3.78,24.9-10.68,1.09-1.09,2.09-2.23,3.01-3.42.4-.52.63-1.13.68-1.75.08-.93-.25-1.89-.95-2.59l-1.28-1.28h0s-37.37-37.37-37.37-37.37Z"/>
                  <path d="M1744.49,907.9c1.65,1.65,1.48,3.46-.5,5.44l-25.74,25.74c-1.81,1.81-3.55,1.9-5.2.25l-43.89-43.89-134.15,134.15,92.91,92.91c1.65,1.65,1.65,3.3,0,4.95l-25.99,25.99c-1.81,1.81-3.55,1.9-5.2.25l-168.29-168.29c-1.65-1.65-1.56-3.38.25-5.2l25.99-25.99c1.65-1.65,3.3-1.65,4.95,0l48.16,48.16,134.15-134.15-48.16-48.16c-1.65-1.65-1.56-3.38.25-5.2l25.74-25.74c1.98-1.98,3.79-2.15,5.44-.5l119.28,119.28Z"/>
                </g>
              </g>
            </g>
          </g>
        </g>
      </g>
    </g>
  </g>
</svg>
