<svg xmlns="http://www.w3.org/2000/svg" id="Layer_2" data-name="Layer 2" viewBox="0 0 2523 2523"><defs><style>.cls-1{fill:#fff}.cls-2{fill:#d5b15f}</style></defs><g id="Layer_1-2" data-name="Layer 1"><g><circle cx="1261.5" cy="1261.5" r="1261.5" class="cls-2"/><g><path d="M1739.59,1687.3c0,8.34,4.6,12.53,13.78,12.53h130.25c9.2,0,13.78-4.19,13.78-12.53v-63.87c0-13.55-.96-25.95-2.86-37.21.08,0,.17.02.25.03-.61-3.33-1.36-6.61-2.21-9.85-2.58-11.02-6.18-20.82-10.83-29.37-6.4-11.78-14.92-22.46-25.56-32.04-23.44-22.28-55.11-35.97-90.01-35.97-5.51,0-10.93.36-16.25,1.04-2.35.3-4.46,1.27-6.16,2.71-2.55,2.17-4.15,5.4-4.15,8.96v6.47h-.01v189.11Z" class="cls-1"/><path d="M625.61,1083.7c0-8.34,5.01-12.52,15.02-12.52h130.26c9.17,0,13.78,4.18,13.78,12.52v222.12h678.84v-470.14c0-8.34,4.17-12.52,12.53-12.52h131.5c9.18,0,13.78,4.18,13.78,12.52v851.64c0,8.36-4.6,12.52-13.78,12.52h-131.5c-8.36,0-12.53-4.16-12.53-12.52v-243.72h-678.84v243.72c0,8.36-4.6,12.52-13.78,12.52h-130.26c-10.01,0-15.02-4.16-15.02-12.52v-603.62Z" class="cls-1"/></g></g></g></svg>