<?xml version="1.0" encoding="UTF-8"?>
<svg id="Layer_2" data-name="Layer 2" xmlns="http://www.w3.org/2000/svg" viewBox="0 0 10645 2523">
  <defs>
    <style>
      .cls-1 {
        fill: none;
        stroke: #d5b15f;
        stroke-miterlimit: 10;
        stroke-width: 30px;
      }

      .cls-2 {
        fill: #fff;
      }

      .cls-3 {
        fill: #d5b15f;
      }
    </style>
  </defs>
  <g id="Layer_1-2" data-name="Layer 1">
    <g>
      <circle class="cls-3" cx="1261.5" cy="1261.5" r="1261.5"/>
      <g>
        <path class="cls-2" d="M1739.59,1687.3c0,8.34,4.6,12.53,13.78,12.53h130.25c9.2,0,13.78-4.19,13.78-12.53v-63.87c0-13.55-.96-25.95-2.86-37.21.08,0,.17.02.25.03-.61-3.33-1.36-6.61-2.21-9.85-2.58-11.02-6.18-20.82-10.83-29.37-6.4-11.78-14.92-22.46-25.56-32.04-23.44-22.28-55.11-35.97-90.01-35.97-5.51,0-10.93.36-16.25,1.04-2.35.3-4.46,1.27-6.16,2.71-2.55,2.17-4.15,5.4-4.15,896v6.47h-.01v189.11Z"/>
        <path class="cls-2" d="M625.61,1083.7c0-8.34,5.01-12.52,15.02-12.52h130.26c9.17,0,13.78,4.18,13.78,12.52v222.12h678.84v-470.14c0-8.34,4.17-12.52,12.53-12.52h131.5c9.18,0,13.78,4.18,13.78,12.52v851.64c0,8.36-4.6,12.52-13.78,12.52h-131.5c-8.36,0-12.53-4.16-12.53-12.52v-243.72h-678.84v243.72c0,8.36-4.6,12.52-13.78,12.52h-130.26c-10.01,0-15.02-4.16-15.02-12.52v-603.62Z"/>
      </g>
    </g>
    <g>
      <path class="cls-2" d="M3053,540.95c0-11.62,6.98-17.44,20.93-17.44h181.45c12.78,0,19.19,5.82,19.19,17.44v309.43h945.67V195.43c0-11.62,5.81-17.44,17.45-17.44h183.18c12.79,0,19.2,5.82,19.2,17.44v1186.39c0,11.64-6.41,17.44-19.2,17.44h-183.18c-11.64,0-17.45-5.8-17.45-17.44v-339.52h-945.67v339.52c0,11.64-6.41,17.44-19.19,17.44h-181.45c-13.95,0-20.93-5.8-20.93-17.44v-840.87Z"/>
      <path class="cls-2" d="M4593.62,963.09c0-65.12,13.09-125.62,39.26-181.44,26.17-55.82,61.94-103.82,107.3-143.93,45.36-40.13,98.57-71.53,159.64-94.22,61.06-22.67,125.89-34.02,194.52-34.02s134.92,11.35,195.4,34.02c60.46,22.69,113.41,54.09,158.77,94.22,45.36,40.11,81.13,88.11,107.3,143.93,26.17,55.82,39.25,116.32,39.25,181.44s-13.07,125.62-39.25,181.44c-26.17,55.84-61.94,103.82-107.3,143.95-45.36,40.11-98.31,71.53-158.77,94.2-60.48,22.69-125.62,34.02-195.4,34.02s-133.46-11.32-194.52-34.02c-61.07-22.67-114.28-54.09-159.64-94.2-45.36-40.13-81.13-88.11-107.3-143.95-26.17-55.82-39.26-116.28-39.26-181.44ZM4808.21,963.09c0,43.04,7.55,79.99,22.68,110.8,15.1,30.83,35.77,56.12,61.94,75.88,26.17,19.8,56.7,34.33,91.6,43.63,34.89,9.32,71.52,13.96,109.9,13.96s75.03-4.64,109.91-13.96c34.9-9.3,65.44-23.83,91.61-43.63,26.17-19.76,46.79-45.04,61.94-75.88,15.1-30.81,22.67-67.76,22.67-110.8s-7.57-79.95-22.67-110.78c-15.14-30.81-35.77-56.12-61.94-75.9-26.17-19.76-56.71-34.29-91.61-43.63-34.88-9.28-71.53-13.94-109.91-13.94s-75.01,4.66-109.9,13.94c-34.9,9.34-65.43,23.87-91.6,43.63-26.17,19.78-46.84,45.09-61.94,75.9-15.13,30.83-22.68,67.76-22.68,110.78Z"/>
      <path class="cls-2" d="M6076.58,526.92h373.37c10.46,0,15.69,5.84,15.69,17.44v151.79c0,11.64-5.23,17.44-15.69,17.44h-373.37v406.52c0,26.76,7.55,47.41,22.69,61.94,15.1,14.55,32.83,25.03,53.21,31.4,20.33,6.41,40.41,10.21,60.19,11.35,19.76,1.16,34.29,1.75,43.61,1.75,17.46,0,44.5-2.32,81.13-6.98,36.65-4.64,77.06-18.03,121.26-40.13,10.48-4.64,16.28-1.75,17.46,8.71l19.19,165.75c1.14,13.96-4.09,23.28-15.71,27.92-39.56,13.96-83.74,23.24-132.6,27.9-48.84,4.64-90.72,6.98-125.6,6.98-41.88,0-84.35-3.48-127.37-10.46-43.04-6.98-82.29-19.76-117.76-38.38-35.49-18.6-64.28-44.2-86.36-76.76-22.12-32.56-33.15-75.03-33.15-127.37v-450.13h-132.6c-11.64,0-17.44-5.8-17.44-17.44v-151.79c0-11.6,5.8-17.44,17.44-17.44h221.57c-30.26-18.58-52.64-41.27-67.17-68.03-14.55-26.76-21.81-62.21-21.81-106.43v-88.97c0-11.62,6.37-17.46,19.19-17.46h181.44c12.78,0,19.19,5.84,19.19,17.46v263.44Z"/>
      <path class="cls-2" d="M7526.4,1254.45c8.14,8.16,8.14,16.3,0,24.44-44.2,43.04-102.36,76.76-174.46,101.18-72.12,24.42-151.2,36.63-237.26,36.63-70.96,0-137.56-10.76-199.77-32.27-62.23-21.51-116.62-52.34-163.14-92.47-46.52-40.13-83.17-88.11-109.91-143.93-26.76-55.84-40.11-117.48-40.11-184.94s13.07-130.56,39.25-185.81c26.17-55.23,61.35-102.93,105.55-143.06,44.2-40.13,96.23-70.92,156.16-92.47,59.89-21.51,123.56-32.27,191.04-32.27s132.58,10.76,191.9,32.27c59.32,21.55,111.37,52.34,156.16,92.47,44.75,40.13,79.95,87.83,105.55,143.06,25.58,55.25,38.38,117.19,38.38,185.81v20.94c0,11.64-6.41,17.44-19.19,17.44h-734.51c3.5,34.9,13.96,65.16,31.4,90.72,17.46,25.6,39.84,47.11,67.17,64.55,27.33,17.46,58.73,30.26,94.22,38.38,35.47,8.16,72.4,12.23,110.78,12.23,52.34,0,100.91-5.25,145.7-15.71,44.75-10.46,80.52-27.92,107.3-52.34,9.28-8.12,18.01-8.12,26.17,0l111.64,115.14ZM7346.7,861.91c-6.98-26.74-18.92-49.73-35.77-68.92-16.87-19.19-36.63-35.18-59.32-47.98-22.67-12.8-47.7-22.4-75.01-28.79-27.35-6.39-54.96-9.6-82.88-9.6s-57.3,3.21-84.63,9.6c-27.33,6.39-52.34,15.98-75.01,28.79-22.69,12.8-42.18,28.79-58.46,47.98-16.3,19.19-27.9,42.18-34.88,68.92h505.95Z"/>
      <path class="cls-2" d="M7744.49,125.65c0-11.62,6.37-17.44,19.19-17.44h184.92c11.62,0,17.46,5.82,17.46,17.44v1256.17c0,11.64-5.84,17.44-17.46,17.44h-184.92c-12.82,0-19.19-5.8-19.19-17.44V125.65Z"/>
      <path class="cls-2" d="M8847.12,882.83c0-36.04-6.41-65.42-19.19-88.11-12.82-22.67-29.4-40.38-49.73-53.21-20.37-12.78-43.34-21.51-68.92-26.17-25.6-4.64-51.77-6.98-78.51-6.98-66.3,0-120.37,10.78-162.25,32.29-41.86,21.53-80.85,49.73-116.89,84.61v556.56c0,11.64-5.82,17.44-17.44,17.44h-186.67c-11.64,0-17.46-5.8-17.46-17.44v-837.46c0-11.6,5.82-17.44,17.46-17.44h186.67c11.62,0,17.44,5.84,17.44,17.44v111.66c17.44-18.58,38.09-36.63,61.94-54.07,23.83-17.46,50-33.15,78.51-47.11,28.49-13.96,59.32-25.01,92.47-33.15,33.15-8.12,68.3-12.21,105.55-12.21,31.4,0,68.92,3.48,112.53,10.46,43.63,6.98,85.2,21.24,124.76,42.75,39.52,21.53,72.97,51.48,100.32,89.86,27.31,38.38,41,88.97,41,151.77v577.5c0,11.64-6.41,17.44-19.19,17.44h-183.19c-12.82,0-19.19-5.8-19.19-17.44v-498.99Z"/>
      <path class="cls-2" d="M9944.51,1268.41h-17.44c-31.4,48.86-76.19,85.79-134.33,110.8-58.18,24.99-123.3,37.49-195.4,37.49-51.2,0-99.75-6.39-145.7-19.19-45.95-12.78-86.08-31.97-120.37-57.57-34.31-25.56-61.37-56.71-81.13-93.34-19.8-36.63-29.65-78.79-29.65-126.49s9.85-90.13,29.65-127.35c19.76-37.22,47.11-68.92,81.99-95.09,34.9-26.17,75.31-46.25,121.26-60.21,45.93-13.94,95.09-20.92,147.43-20.92,69.78,0,133.74,12.21,191.92,36.63,58.14,24.42,102.93,59.91,134.33,106.43h17.44v-92.47c0-36.04-9.32-64.83-27.92-86.36-18.6-21.51-41.59-38.09-68.9-49.73-27.35-11.62-56.14-19.46-86.38-23.56-30.26-4.07-57-6.12-80.24-6.12-61.66,0-123.6,7.59-185.81,22.69-62.23,15.12-121.26,36.06-177.08,62.8-10.48,5.84-17.46,2.91-20.94-8.71l-29.67-148.31c-3.48-12.78,0-22.67,10.48-29.65,30.22-15.1,63.37-28.2,99.43-39.27,36.04-11.03,72.99-20.33,110.8-27.9,37.79-7.55,75.01-13.37,111.66-17.46,36.63-4.05,71.22-6.09,103.8-6.09,25.58,0,54.96,1.48,88.11,4.37,33.15,2.91,66.87,8.44,101.2,16.58,34.29,8.14,67.74,18.92,100.32,32.27,32.54,13.39,61.62,31.13,87.22,53.21,25.58,22.12,46.25,48.59,61.94,79.4,15.71,30.83,23.56,67.17,23.56,109.03v577.5c0,11.64-5.84,17.44-17.44,17.44h-181.44c-15.14,0-22.69-5.8-22.69-17.44v-113.41ZM9442.04,1116.61c0,36.08,23.56,63.98,70.67,83.76,47.11,19.78,107.87,29.65,182.33,29.65s128.22-10.46,171.85-31.4c43.61-20.94,65.42-48.25,65.42-82.01s-21.81-61.32-65.42-82.86c-43.63-21.51-100.93-32.29-171.85-32.29-74.46,0-135.22,10.21-182.33,30.54-47.11,20.37-70.67,48.59-70.67,84.61Z"/>
    </g>
    <path class="cls-2" d="M10330.83,1399.24c0,11.62,6.41,17.46,19.19,17.46h181.44c12.82,0,19.19-5.84,19.19-17.46v-88.97c0-18.88-1.33-36.15-3.98-51.83.12.01.23.02.35.04-.84-4.64-1.9-9.21-3.09-13.73-3.59-15.36-8.61-29-15.09-40.91-8.91-16.41-20.79-31.29-35.61-44.63-32.65-31.04-76.78-50.11-125.39-50.11-7.67,0-15.22.5-22.64,1.44-3.27.42-6.22,1.77-8.58,3.78-3.56,3.02-5.78,7.52-5.78,12.48v9.01h-.02v263.44Z"/>
    <line class="cls-1" x1="3093" y1="2414.79" x2="10551" y2="2414.79"/>
    <g>
      <path class="cls-2" d="M3013.94,1798.01h35.08l55.1,242.6c1.15,4.88,2.07,8.94,2.8,12.16.71,3.24,1.44,7.21,2.15,11.96h1.94c.71-4.75,1.41-8.72,2.05-11.96.65-3.23,1.61-7.28,2.9-12.16l63.28-242.6h36.37l65.01,242.6c1.3,4.88,2.27,8.94,2.91,12.16.65,3.24,1.39,7.21,2.26,11.96h1.72c.73-4.75,1.41-8.72,2.05-11.96.65-3.23,1.54-7.28,2.7-12.16l53.81-242.6h34.23l-77.07,315.57h-34.01l-65.65-243.68c-1.29-4.87-2.44-9.64-3.44-14.31-1-4.66-1.8-9.16-2.36-13.46h-1.73c-.71,4.31-1.58,8.8-2.58,13.46-1.01,4.66-2.15,9.43-3.44,14.31l-65.01,243.68h-34.01l-77.06-315.57Z"/>
      <path class="cls-2" d="M3432.39,1780.79h33.36v134.54c8.62-10.77,19.17-19.24,31.65-25.41,12.49-6.16,26.4-9.25,41.75-9.25,21.8,0,39.54,6.43,53.17,19.26,13.63,12.85,20.44,34.27,20.44,64.26v147.24h-33.58v-147.66c0-19.37-4.53-33.3-13.56-41.76-9.04-8.47-21.68-12.7-37.89-12.7-13.91,0-26.19,3.7-36.8,11.09-10.63,7.39-19.02,16.9-25.19,28.52v162.52h-33.36v-330.64Z"/>
      <path class="cls-2" d="M3670.02,1994.76c0-34.15,9.33-62.07,27.98-83.74,18.66-21.67,43.27-32.5,73.84-32.5s54.1,9.97,70.59,29.92c16.52,19.95,24.76,47.43,24.76,82.44v13.99h-177.38v-27.13h143.59v-3.01c0-20.66-5.07-37.2-15.18-49.62-10.11-12.42-25.29-18.62-45.52-18.62-22.68,0-39.8,8.43-51.35,25.29-11.55,16.86-17.32,37.86-17.32,62.97v6.89c0,25.11,6.02,46.1,18.08,62.96,12.05,16.86,30.91,25.29,56.61,25.29,14.92,0,27.69-3.04,38.32-9.15,10.62-6.1,19.44-13.52,26.47-22.28l21.75,17.86c-7.19,10.33-18.13,19.83-32.83,28.52-14.72,8.68-32.62,13.03-53.71,13.03-35.03,0-61.89-10.84-80.62-32.5-18.73-21.67-28.09-49.59-28.09-83.74v-6.89Z"/>
      <path class="cls-2" d="M3924.01,1884.98h30.14l1.51,30.56h.85c6.31-9.89,14.54-18.54,24.65-25.94,10.11-7.38,22.28-11.08,36.49-11.08,3.29,0,6.77.36,10.44,1.07,3.66.73,6.29,1.37,7.86,1.95v31.2c-3.01-.56-6.2-1.04-9.57-1.39-3.37-.36-6.99-.54-10.87-.54-14.06,0-26.01,3.66-35.83,10.98-9.84,7.33-17.27,16.37-22.29,27.13v162.52h-33.37v-226.45Z"/>
      <path class="cls-2" d="M4065.43,1994.76c0-34.15,9.33-62.07,27.99-83.74,18.66-21.67,43.26-32.5,73.83-32.5s54.11,9.97,70.61,29.92c16.51,19.95,24.76,47.43,24.76,82.44v13.99h-177.38v-27.13h143.57v-3.01c0-20.66-5.06-37.2-15.17-49.62-10.11-12.42-25.29-18.62-45.53-18.62-22.68,0-39.8,8.43-51.34,25.29-11.56,16.86-17.32,37.86-17.32,62.97v6.89c0,25.11,6.01,46.1,18.07,62.96,12.06,16.86,30.93,25.29,56.61,25.29,14.93,0,27.69-3.04,38.32-9.15,10.62-6.1,19.44-13.52,26.48-22.28l21.73,17.86c-7.18,10.33-18.12,19.83-32.83,28.52-14.71,8.68-32.61,13.03-53.71,13.03-35.02,0-61.88-10.84-80.6-32.5-18.73-21.67-28.1-49.59-28.1-83.74v-6.89Z"/>
      <path class="cls-2" d="M4516.6,1991.74l-110-193.74h39.39l74.71,137.12c2.28,4.31,4.52,8.43,6.66,12.38,2.17,3.94,4.17,7.99,6.04,12.15h1.51c1.85-4.16,3.84-8.21,5.91-12.15,2.08-3.95,4.35-8.07,6.8-12.38l75.55-137.12h37.88l-110,193.74v119.69h-34.44v-119.69Z"/>
      <path class="cls-2" d="M4660.6,1994.76c0-34.15,9.65-62.07,28.96-83.74,19.3-21.67,45.17-32.5,77.61-32.5s58.07,10.84,77.38,32.5c19.3,21.67,28.96,49.59,28.96,83.74v6.89c0,34.15-9.65,62.07-28.96,83.74-19.3,21.67-45.11,32.5-77.38,32.5s-58.3-10.84-77.61-32.5c-19.3-21.67-28.96-49.59-28.96-83.74v-6.89ZM4694.83,2001.65c0,24.97,6.06,45.92,18.19,62.85,12.13,16.93,30.17,25.4,54.15,25.4s41.82-8.47,54.02-25.4c12.2-16.93,18.3-37.88,18.3-62.85v-6.89c0-24.97-6.1-45.92-18.3-62.85-12.2-16.93-30.2-25.41-54.02-25.41s-42.02,8.48-54.15,25.41c-12.13,16.93-18.19,37.88-18.19,62.85v6.89Z"/>
      <path class="cls-2" d="M4930.74,1884.98h33.36v147.66c0,19.37,4.53,33.3,13.57,41.76,9.04,8.47,21.75,12.69,38.1,12.69,13.91,0,26.15-3.69,36.7-11.08,10.55-7.39,18.91-16.9,25.09-28.53v-162.51h33.58v226.45h-30.35l-1.29-31.21h-1.08c-8.6,11.2-19.12,19.91-31.54,26.16-12.42,6.24-26.22,9.36-41.43,9.36-22.68,0-40.79-6.43-54.35-19.27-13.57-12.84-20.34-34.26-20.34-64.25v-147.24Z"/>
      <path class="cls-2" d="M5184.95,1884.98h30.14l1.51,30.56h.85c6.31-9.89,14.54-18.54,24.65-25.94,10.11-7.38,22.28-11.08,36.49-11.08,3.29,0,6.77.36,10.44,1.07,3.66.73,6.29,1.37,7.86,1.95v31.2c-3.01-.56-6.2-1.04-9.57-1.39-3.37-.36-6.99-.54-10.87-.54-14.06,0-26.01,3.66-35.83,10.98-9.84,7.33-17.27,16.37-22.29,27.13v162.52h-33.37v-226.45Z"/>
      <path class="cls-2" d="M5465.64,1798.01l87.61,241.52c1.87,5.17,3.63,10.08,5.28,14.74,1.65,4.66,3.26,9.51,4.85,14.54h1.72c1.58-5.02,3.19-9.87,4.85-14.54,1.64-4.66,3.41-9.57,5.28-14.74l88.46-241.52h35.31l-118.61,315.57h-33.36l-118.41-315.57h37.03Z"/>
      <path class="cls-2" d="M5742.13,1799.41c3.8-4.09,9.28-6.14,16.47-6.14s12.44,2.05,16.24,6.14c3.8,4.09,5.71,9.15,5.71,15.17s-1.91,11.09-5.71,15.18c-3.8,4.09-9.21,6.14-16.24,6.14s-12.67-2.05-16.47-6.14c-3.8-4.09-5.71-9.15-5.71-15.18s1.91-11.08,5.71-15.17ZM5741.81,1884.98h33.36v226.45h-33.36v-226.45Z"/>
      <path class="cls-2" d="M5868.58,2044.7v1.07c0,14.78,5.34,25.84,16.03,33.15,10.69,7.31,24.72,10.98,42.09,10.98s31.25-3.58,41.22-10.76c9.97-7.18,14.96-16.44,14.96-27.77s-4.02-19.83-12.05-25.51c-8.04-5.67-24.63-11.37-49.74-17.1-24.97-5.75-44.37-13.81-58.22-24.22-13.86-10.4-20.77-24.65-20.77-42.73s7.6-33.32,22.81-45.31c15.22-11.98,35.52-17.97,60.93-17.97s46.06,6.24,61.55,18.73c15.5,12.49,23.26,28.84,23.26,49.08v1.07h-33.37v-1.29c0-12.05-4.26-21.67-12.81-28.84-8.55-7.18-21.42-10.77-38.63-10.77s-29.97,3.09-38.22,9.26c-8.25,6.17-12.37,14.13-12.37,23.89s4.31,17.55,12.91,23.36c8.6,5.82,25.4,11.59,50.37,17.33,25.11,5.74,44.34,13.78,57.68,24.11,13.36,10.33,20.03,25.33,20.03,44.99s-7.46,36.16-22.39,49.08c-14.93,12.91-37.31,19.37-67.16,19.37s-52.38-6.57-68.03-19.7c-15.64-13.13-23.45-30.6-23.45-52.42v-1.07h33.36Z"/>
      <path class="cls-2" d="M6076.62,1799.41c3.8-4.09,9.31-6.14,16.47-6.14s12.44,2.05,16.26,6.14c3.78,4.09,5.69,9.15,5.69,15.17s-1.91,11.09-5.69,15.18c-3.82,4.09-9.24,6.14-16.26,6.14s-12.67-2.05-16.47-6.14c-3.8-4.09-5.7-9.15-5.7-15.18s1.9-11.08,5.7-15.17ZM6076.29,1884.98h33.38v226.45h-33.38v-226.45Z"/>
      <path class="cls-2" d="M6170.79,1994.76c0-34.15,9.65-62.07,28.96-83.74,19.3-21.67,45.17-32.5,77.59-32.5s58.1,10.84,77.4,32.5c19.3,21.67,28.96,49.59,28.96,83.74v6.89c0,34.15-9.65,62.07-28.96,83.74-19.3,21.67-45.11,32.5-77.4,32.5s-58.28-10.84-77.59-32.5c-19.3-21.67-28.96-49.59-28.96-83.74v-6.89ZM6205.02,2001.65c0,24.97,6.06,45.92,18.18,62.85,12.14,16.93,30.18,25.4,54.14,25.4s41.83-8.47,54.04-25.4c12.19-16.93,18.29-37.88,18.29-62.85v-6.89c0-24.97-6.1-45.92-18.29-62.85-12.21-16.93-30.22-25.41-54.04-25.41s-42,8.48-54.14,25.41c-12.12,16.93-18.18,37.88-18.18,62.85v6.89Z"/>
      <path class="cls-2" d="M6443.31,1884.98h30.13l1.5,31.2h.88c8.62-11.18,19.12-19.9,31.54-26.15,12.39-6.24,26.22-9.36,41.42-9.36,22.83,0,40.98,6.43,54.48,19.26,13.48,12.85,20.23,34.27,20.23,64.26v147.24h-33.59v-147.66c0-19.37-4.45-33.3-13.34-41.76-8.89-8.47-21.54-12.7-37.89-12.7-13.91,0-26.22,3.73-36.9,11.2-10.69,7.46-19.05,16.93-25.09,28.42v162.52h-33.36v-226.45Z"/>
      <path class="cls-2" d="M6815.67,1798.01h100.97c30.98,0,55.29,6.5,72.86,19.49,17.58,12.98,26.38,33.83,26.38,62.53,0,17.51-4.4,31.78-13.13,42.84-8.78,11.05-19.67,18.8-32.73,23.24v.86c16.08,4.6,29.16,13.2,39.3,25.84,10.11,12.62,15.16,29.13,15.16,49.51,0,28.55-9.17,50.55-27.55,65.98-18.36,15.42-42.82,23.14-73.39,23.14h-107.86v-313.42ZM6916.64,1934.06c23.11,0,39.71-4.78,49.83-14.32,10.11-9.55,15.18-22.78,15.18-39.71s-5.07-30.57-15.18-39.61c-10.11-9.04-26.72-13.56-49.83-13.56h-67.17v107.2h67.17ZM6923.53,2082.59c22.94,0,39.81-5.38,50.59-16.15,10.76-10.76,16.15-25.47,16.15-44.13s-5.39-32.93-16.15-43.7c-10.78-10.76-27.64-16.15-50.59-16.15h-74.06v120.12h74.06Z"/>
      <path class="cls-2" d="M7073.12,1994.76c0-34.15,9.33-62.07,27.99-83.74,18.66-21.67,43.26-32.5,73.83-32.5s54.09,9.97,70.61,29.92c16.49,19.95,24.74,47.43,24.74,82.44v13.99h-177.36v-27.13h143.56v-3.01c0-20.66-5.04-37.2-15.16-49.62-10.14-12.42-25.29-18.62-45.54-18.62-22.67,0-39.78,8.43-51.32,25.29-11.56,16.86-17.35,37.86-17.35,62.97v6.89c0,25.11,6.04,46.1,18.08,62.96,12.07,16.86,30.94,25.29,56.62,25.29,14.93,0,27.69-3.04,38.31-9.15,10.62-6.1,19.44-13.52,26.49-22.28l21.72,17.86c-7.16,10.33-18.11,19.83-32.83,28.52-14.7,8.68-32.6,13.03-53.7,13.03-35.02,0-61.9-10.84-80.63-32.5-18.73-21.67-28.08-49.59-28.08-83.74v-6.89Z"/>
      <path class="cls-2" d="M7312.91,1994.76c0-34.15,9.26-62.07,27.76-83.74,18.52-21.67,44-32.5,76.43-32.5,29.99,0,52.68,8.11,68.12,24.33,15.43,16.22,23.15,34.44,23.15,54.68v1.07h-32.3v-1.07c0-13.78-4.7-25.73-14.1-35.84-9.4-10.11-24.37-15.18-44.87-15.18-23.98,0-41.65,8.48-53.08,25.41-11.4,16.93-17.12,37.88-17.12,62.85v6.89c0,25.11,5.76,46.1,17.23,62.96,11.47,16.86,29.14,25.29,52.96,25.29,20.5,0,35.48-5.06,44.87-15.17,9.4-10.12,14.1-22.07,14.1-35.84v-1.08h32.3v1.08c0,20.24-7.72,38.46-23.15,54.68-15.43,16.22-38.13,24.33-68.12,24.33-32.44,0-57.91-10.84-76.43-32.5-18.5-21.67-27.76-49.59-27.76-83.74v-6.89Z"/>
      <path class="cls-2" d="M7550.55,1994.76c0-34.15,9.65-62.07,28.96-83.74,19.3-21.67,45.17-32.5,77.59-32.5s58.1,10.84,77.4,32.5c19.3,21.67,28.96,49.59,28.96,83.74v6.89c0,34.15-9.65,62.07-28.96,83.74-19.3,21.67-45.11,32.5-77.4,32.5s-58.28-10.84-77.59-32.5c-19.3-21.67-28.96-49.59-28.96-83.74v-6.89ZM7584.78,2001.65c0,24.97,6.06,45.92,18.18,62.85,12.14,16.93,30.18,25.4,54.14,25.4s41.83-8.47,54.04-25.4c12.19-16.93,18.29-37.88,18.29-62.85v-6.89c0-24.97-6.1-45.92-18.29-62.85-12.21-16.93-30.22-25.41-54.04-25.41s-42,8.48-54.14,25.41c-12.12,16.93-18.18,37.88-18.18,62.85v6.89Z"/>
      <path class="cls-2" d="M7823.05,1884.98h30.13l1.52,31.2h.85c8.62-11.05,18.87-19.73,30.78-26.04,11.91-6.31,25.27-9.47,40.06-9.47s28.93,3.16,40.36,9.47c11.4,6.31,19.83,16.22,25.29,29.71h.85c9.74-13.63,20.85-23.57,33.26-29.81,12.39-6.24,26.35-9.36,41.86-9.36,22.97,0,41.12,6.43,54.46,19.26,13.36,12.85,20.02,34.27,20.02,64.26v147.24h-33.36v-147.66c0-19.37-4.35-33.3-13.02-41.76-8.68-8.47-20.78-12.7-36.28-12.7-13.5,0-25.36,3.7-35.61,11.09-10.27,7.39-18.5,16.9-24.65,28.52v162.52h-33.59v-147.66c0-19.37-4.38-33.3-13.13-41.76-8.75-8.47-20.96-12.7-36.6-12.7-13.48,0-25.29,3.7-35.41,11.09-10.11,7.39-18.27,16.9-24.42,28.52v162.52h-33.38v-226.45Z"/>
      <path class="cls-2" d="M8199.76,1994.76c0-34.15,9.31-62.07,27.97-83.74,18.66-21.67,43.26-32.5,73.83-32.5s54.11,9.97,70.61,29.92c16.52,19.95,24.76,47.43,24.76,82.44v13.99h-177.38v-27.13h143.59v-3.01c0-20.66-5.07-37.2-15.18-49.62-10.11-12.42-25.29-18.62-45.52-18.62-22.69,0-39.78,8.43-51.35,25.29-11.54,16.86-17.32,37.86-17.32,62.97v6.89c0,25.11,6.04,46.1,18.08,62.96,12.05,16.86,30.91,25.29,56.6,25.29,14.93,0,27.71-3.04,38.33-9.15,10.62-6.1,19.44-13.52,26.47-22.28l21.75,17.86c-7.19,10.33-18.13,19.83-32.83,28.52-14.72,8.68-32.62,13.03-53.72,13.03-35.02,0-61.88-10.84-80.6-32.5-18.73-21.67-28.08-49.59-28.08-83.74v-6.89Z"/>
      <path class="cls-2" d="M8471.84,2044.7v1.07c0,14.78,5.34,25.84,16.03,33.15,10.69,7.31,24.72,10.98,42.09,10.98s31.24-3.58,41.21-10.76c9.97-7.18,14.97-16.44,14.97-27.77s-4.03-19.83-12.07-25.51c-8.04-5.67-24.6-11.37-49.71-17.1-24.97-5.75-44.39-13.81-58.24-24.22-13.84-10.4-20.78-24.65-20.78-42.73s7.6-33.32,22.83-45.31c15.2-11.98,35.52-17.97,60.91-17.97s46.07,6.24,61.58,18.73c15.5,12.49,23.24,28.84,23.24,49.08v1.07h-33.36v-1.29c0-12.05-4.28-21.67-12.81-28.84-8.55-7.18-21.42-10.77-38.65-10.77s-29.95,3.09-38.19,9.26c-8.27,6.17-12.39,14.13-12.39,23.89s4.31,17.55,12.92,23.36c8.62,5.82,25.41,11.59,50.38,17.33,25.11,5.74,44.34,13.78,57.68,24.11,13.34,10.33,20.02,25.33,20.02,44.99s-7.46,36.16-22.39,49.08c-14.93,12.91-37.32,19.37-67.15,19.37s-52.38-6.57-68.03-19.7c-15.64-13.13-23.47-30.6-23.47-52.42v-1.07h33.38Z"/>
      <path class="cls-2" d="M8786.73,1945.89c0-49.08,12.23-87.07,36.72-113.97,24.46-26.91,55.91-40.36,94.38-40.36s69.75,13.45,94.29,40.36c24.53,26.91,36.81,64.89,36.81,113.97v17.66c0,49.08-12.28,87.07-36.81,113.98-24.53,26.91-55.98,40.36-94.29,40.36s-69.92-13.45-94.38-40.36c-24.49-26.92-36.72-64.9-36.72-113.98v-17.66ZM8848.07,2055.36c17.67,21.73,40.91,32.61,69.75,32.61s52.09-10.87,69.75-32.61c17.65-21.75,26.47-52.35,26.47-91.81v-17.66c0-39.46-8.82-70.07-26.47-91.8-17.67-21.75-40.91-32.62-69.75-32.62s-52.09,10.87-69.75,32.62c-17.65,21.73-26.47,52.34-26.47,91.8v17.66c0,39.46,8.82,70.07,26.47,91.81Z"/>
      <path class="cls-2" d="M9112.62,1884.98h33.38v147.66c0,19.37,4.52,33.3,13.57,41.76,9.03,8.47,21.72,12.69,38.08,12.69,13.94,0,26.17-3.69,36.72-11.08,10.55-7.39,18.89-16.9,25.06-28.53v-162.51h33.59v226.45h-30.36l-1.29-31.21h-1.06c-8.62,11.2-19.14,19.91-31.54,26.16-12.42,6.24-26.24,9.36-41.44,9.36-22.67,0-40.8-6.43-54.37-19.27-13.55-12.84-20.34-34.26-20.34-64.25v-147.24Z"/>
      <path class="cls-2" d="M9366.85,1884.98h30.13l1.5,30.56h.88c6.31-9.89,14.51-18.54,24.65-25.94,10.11-7.38,22.28-11.08,36.49-11.08,3.29,0,6.77.36,10.44,1.07,3.66.73,6.27,1.37,7.86,1.95v31.2c-3.02-.56-6.22-1.04-9.58-1.39-3.36-.36-7-.54-10.87-.54-14.08,0-26.01,3.66-35.84,10.98-9.84,7.33-17.25,16.37-22.28,27.13v162.52h-33.36v-226.45Z"/>
      <path class="cls-2" d="M9647.09,1798.01h34.44v137.34h168.12v-137.34h34.44v313.42h-34.44v-147.24h-168.12v147.24h-34.44v-313.42Z"/>
      <path class="cls-2" d="M9947.81,1994.76c0-34.15,9.65-62.07,28.96-83.74,19.3-21.67,45.17-32.5,77.59-32.5s58.1,10.84,77.4,32.5c19.3,21.67,28.96,49.59,28.96,83.74v6.89c0,34.15-9.65,62.07-28.96,83.74-19.3,21.67-45.11,32.5-77.4,32.5s-58.28-10.84-77.59-32.5c-19.3-21.67-28.96-49.59-28.96-83.74v-6.89ZM9982.04,2001.65c0,24.97,6.06,45.92,18.18,62.85,12.14,16.93,30.18,25.4,54.14,25.4s41.83-8.47,54.04-25.4c12.19-16.93,18.29-37.88,18.29-62.85v-6.89c0-24.97-6.1-45.92-18.29-62.85-12.21-16.93-30.22-25.41-54.04-25.41s-42,8.48-54.14,25.41c-12.12,16.93-18.18,37.88-18.18,62.85v6.89Z"/>
      <path class="cls-2" d="M10187.8,1884.98h130.45v26.47h-130.45v-26.47ZM10231.5,1900.9v-71.9h33.59v226.24c0,11.92,2.21,20.46,6.68,25.62,4.45,5.17,11.47,7.75,21.08,7.75,4.17,0,8.22-.43,12.16-1.29,3.96-.86,7.92-2,11.96-3.44v27.98c-3.59,1.58-8.25,2.98-14.01,4.2-5.74,1.22-12.05,1.83-18.94,1.83-16.08,0-28.84-5.03-38.31-15.08-9.47-10.03-14.21-25.89-14.21-47.57v-154.34Z"/>
      <path class="cls-2" d="M10356.15,1994.76c0-34.15,9.31-62.07,27.97-83.74,18.66-21.67,43.26-32.5,73.83-32.5s54.11,9.97,70.61,29.92c16.52,19.95,24.76,47.43,24.76,82.44v13.99h-177.38v-27.13h143.59v-3.01c0-20.66-5.07-37.2-15.18-49.62-10.11-12.42-25.29-18.62-45.52-18.62-22.69,0-39.78,8.43-51.35,25.29-11.54,16.86-17.32,37.86-17.32,62.97v6.89c0,25.11,6.04,46.1,18.08,62.96s30.91,25.29,56.6,25.29c14.93,0,27.71-3.04,38.33-9.15,10.62-6.1,19.44-13.52,26.47-22.28l21.75,17.86c-7.19,10.33-18.13,19.83-32.83,28.52-14.72,8.68-32.62,13.03-53.72,13.03-35.02,0-61.88-10.84-80.6-32.5-18.73-21.67-28.08-49.59-28.08-83.74v-6.89Z"/>
      <path class="cls-2" d="M10611.41,1780.79h33.59v330.64h-33.59v-330.64Z"/>
    </g>
  </g>
</svg>
