<svg xmlns="http://www.w3.org/2000/svg" id="Layer_2" data-name="Layer 2" viewBox="0 0 9021.22 1574.38"><defs><style>.cls-1{fill:#fff}</style></defs><g id="Layer_1-2" data-name="Layer 1"><g><path d="M0,520.66c0-13.98,8.4-20.98,25.18-20.98h218.33c15.38,0,23.09,7,23.09,20.98v372.31h1137.84V104.94c0-13.98,6.99-20.98,21-20.98h220.41c15.39,0,23.1,7,23.1,20.98v1427.46c0,14.01-7.71,20.98-23.1,20.98h-220.41c-14.01,0-21-6.98-21-20.98v-408.51H266.6v408.51c0,14.01-7.71,20.98-23.09,20.98H25.18c-16.78,0-25.18-6.98-25.18-20.98v-1011.74Z" class="cls-1"/><path d="M1853.68,1028.59c0-78.35,15.74-151.15,47.23-218.31,31.49-67.16,74.52-124.91,129.1-173.17,54.58-48.29,118.6-86.07,192.08-113.37,73.47-27.28,151.47-40.93,234.05-40.93s162.34,13.65,235.11,40.93c72.75,27.3,136.46,65.08,191.04,113.37,54.58,48.26,97.61,106.01,129.1,173.17,31.49,67.16,47.22,139.96,47.22,218.31s-15.73,151.15-47.22,218.31c-31.49,67.19-74.52,124.91-129.1,173.2-54.58,48.26-118.29,86.07-191.04,113.34-72.77,27.3-151.15,40.93-235.11,40.93s-160.58-13.63-234.05-40.93c-73.48-27.28-137.5-65.08-192.08-113.34-54.58-48.29-97.61-106.01-129.1-173.2-31.49-67.16-47.23-139.91-47.23-218.31ZM2111.88,1028.59c0,51.79,9.08,96.24,27.29,133.31,18.17,37.1,43.03,67.52,74.52,91.29,31.49,23.83,68.22,41.31,110.21,52.5,41.98,11.22,86.05,16.8,132.23,16.8s90.28-5.58,132.25-16.8c41.99-11.19,78.73-28.67,110.22-52.5,31.49-23.77,56.3-54.2,74.52-91.29,18.17-37.07,27.28-81.53,27.28-133.31s-9.11-96.19-27.28-133.29c-18.22-37.07-43.03-67.52-74.52-91.32-31.49-23.77-68.23-41.26-110.22-52.5-41.97-11.16-86.07-16.77-132.25-16.77s-90.25,5.61-132.23,16.77c-41.99,11.24-78.72,28.72-110.21,52.5-31.49,23.8-56.35,54.25-74.52,91.32-18.21,37.1-27.29,81.53-27.29,133.29Z" class="cls-1"/><path d="M3637.98,503.79h449.24c12.59,0,18.88,7.03,18.88,20.98v182.64c0,14.01-6.29,20.98-18.88,20.98h-449.24v489.13c0,32.2,9.08,57.04,27.3,74.52,18.17,17.51,39.51,30.12,64.02,37.78,24.46,7.71,48.62,12.28,72.42,13.65,23.77,1.4,41.26,2.11,52.47,2.11,21.01,0,53.54-2.79,97.61-8.4,44.1-5.58,92.71-21.69,145.9-48.29,12.61-5.58,19.59-2.11,21.01,10.48l23.09,199.44c1.37,16.8-4.92,28.01-18.9,33.59-47.6,16.8-100.76,27.96-159.55,33.57-58.77,5.58-109.16,8.4-151.12,8.4-50.39,0-101.49-4.19-153.26-12.59-51.79-8.4-99.01-23.77-141.69-46.18-42.7-22.38-77.34-53.18-103.9-92.36-26.62-39.18-39.89-90.28-39.89-153.26v-541.6h-159.55c-14.01,0-20.98-6.98-20.98-20.98v-182.64c0-13.96,6.98-20.98,20.98-20.98h266.6c-36.41-22.35-63.33-49.66-80.81-81.86-17.51-32.2-26.24-74.85-26.24-128.06v-107.05c0-13.98,7.66-21.01,23.09-21.01h218.31c15.38,0,23.09,7.03,23.09,21.01v316.97Z" class="cls-1"/><path d="M5382.41,1379.15c9.79,9.82,9.79,19.61,0,29.41-53.18,51.79-123.16,92.36-209.92,121.74-86.78,29.38-181.93,44.07-285.48,44.07-85.38,0-165.51-12.94-240.36-38.82-74.88-25.88-140.32-62.98-196.29-111.26-55.97-48.29-100.07-106.01-132.25-173.17-32.2-67.19-48.26-141.36-48.26-222.53s15.73-157.09,47.22-223.57c31.49-66.45,73.81-123.85,126.99-172.13,53.18-48.29,115.78-85.33,187.89-111.26,72.06-25.88,148.66-38.82,229.86-38.82s159.52,12.94,230.9,38.82c71.38,25.93,134,62.98,187.89,111.26,53.84,48.29,96.19,105.68,126.99,172.13,30.78,66.48,46.18,141,46.18,223.57v25.2c0,14.01-7.71,20.98-23.09,20.98h-883.76c4.21,41.99,16.8,78.4,37.78,109.16,21.01,30.8,47.93,56.68,80.81,77.67,32.88,21.01,70.67,36.41,113.37,46.18,42.68,9.82,87.11,14.72,133.29,14.72,62.98,0,121.41-6.32,175.31-18.9,53.84-12.59,96.88-33.59,129.1-62.98,11.16-9.77,21.67-9.77,31.49,0l134.33,138.54ZM5166.2,906.85c-8.4-32.17-22.76-59.83-43.03-82.92-20.3-23.09-44.07-42.32-71.38-57.72-27.28-15.4-57.39-26.95-90.25-34.63-32.91-7.69-66.12-11.54-99.72-11.54s-68.94,3.86-101.82,11.54c-32.88,7.69-62.98,19.23-90.25,34.63-27.3,15.4-50.75,34.63-70.34,57.72-19.61,23.09-33.57,50.75-41.97,82.92h608.76Z" class="cls-1"/><path d="M5644.82,20.98c0-13.98,7.66-20.98,23.09-20.98h222.5c13.98,0,21.01,7,21.01,20.98v1511.43c0,14.01-7.03,20.98-21.01,20.98h-222.5c-15.43,0-23.09-6.98-23.09-20.98V20.98Z" class="cls-1"/><path d="M6971.5,932.02c0-43.36-7.71-78.71-23.09-106.01-15.43-27.28-35.37-48.59-59.83-64.02-24.51-15.38-52.14-25.88-82.92-31.49-30.8-5.58-62.29-8.4-94.47-8.4-79.77,0-144.83,12.97-195.22,38.85-50.37,25.91-97.28,59.83-140.65,101.8v669.66c0,14.01-7,20.98-20.98,20.98h-224.61c-14.01,0-21.01-6.98-21.01-20.98v-1007.63c0-13.96,7-20.98,21.01-20.98h224.61c13.98,0,20.98,7.03,20.98,20.98v134.35c20.98-22.35,45.82-44.07,74.52-65.06,28.67-21.01,60.16-39.89,94.47-56.68,34.28-16.8,71.38-30.09,111.26-39.89,39.89-9.77,82.18-14.69,126.99-14.69,37.78,0,82.92,4.19,135.39,12.59,52.5,8.4,102.51,25.55,150.11,51.43,47.55,25.91,87.79,61.94,120.7,108.12,32.86,46.18,49.33,107.05,49.33,182.61v694.85c0,14.01-7.71,20.98-23.09,20.98h-220.42c-15.43,0-23.09-6.98-23.09-20.98v-600.39Z" class="cls-1"/><path d="M8291.89,1395.95h-20.98c-37.78,58.79-91.67,103.22-161.63,133.31-70.01,30.07-148.36,45.11-235.11,45.11-61.61,0-120.02-7.69-175.31-23.09-55.29-15.38-103.57-38.47-144.83-69.27-41.28-30.75-73.84-68.23-97.61-112.3-23.83-44.07-35.68-94.8-35.68-152.19s11.85-108.45,35.68-153.23c23.77-44.78,56.68-82.92,98.65-114.41,41.99-31.49,90.61-55.64,145.9-72.44,55.26-16.77,114.41-25.17,177.39-25.17,83.96,0,160.92,14.69,230.92,44.07,69.95,29.38,123.85,72.09,161.63,128.06h20.98v-111.26c0-43.36-11.22-78-33.59-103.9-22.38-25.88-50.04-45.82-82.9-59.83-32.91-13.98-67.54-23.42-103.93-28.34-36.41-4.9-68.58-7.36-96.55-7.36-74.19,0-148.71,9.13-223.57,27.3-74.88,18.19-145.9,43.39-213.06,75.56-12.61,7.03-21.01,3.5-25.2-10.48l-35.7-178.45c-4.19-15.38,0-27.28,12.61-35.68,36.36-18.17,76.25-33.92,119.64-47.25,43.36-13.27,87.82-24.46,133.31-33.57,45.47-9.08,90.25-16.09,134.35-21.01,44.07-4.87,85.69-7.33,124.89-7.33,30.78,0,66.12,1.78,106.01,5.25,39.89,3.5,80.46,10.15,121.77,19.94,41.26,9.79,81.5,22.76,120.7,38.82,39.15,16.11,74.14,37.45,104.94,64.02,30.78,26.62,55.64,58.46,74.52,95.53,18.9,37.1,28.34,80.81,28.34,131.18v694.85c0,14.01-7.03,20.98-20.98,20.98h-218.31c-18.22,0-27.3-6.98-27.3-20.98v-136.46ZM7687.32,1213.31c0,43.41,28.34,76.98,85.03,100.78,56.68,23.8,129.79,35.68,219.38,35.68s154.27-12.59,206.77-37.78c52.47-25.2,78.71-58.05,78.71-98.68s-26.24-73.79-78.71-99.69c-52.5-25.88-121.44-38.85-206.77-38.85-89.59,0-162.7,12.28-219.38,36.74-56.68,24.51-85.03,58.46-85.03,101.8Z" class="cls-1"/></g><path d="M8756.72,1532.38c0,13.98,7.71,21.01,23.09,21.01h218.31c15.43,0,23.09-7.03,23.09-21.01v-107.05c0-22.72-1.61-43.49-4.79-62.37.14.01.28.03.42.04-1.02-5.59-2.28-11.08-3.71-16.51-4.32-18.48-10.36-34.89-18.15-49.22-10.72-19.75-25.01-37.65-42.85-53.7-39.29-37.35-92.38-60.3-150.87-60.3-9.23,0-18.32.6-27.24,1.74-3.93.5-7.48,2.13-10.32,4.54-4.28,3.64-6.96,9.04-6.96,15.02v10.84h-.02v316.97Z" class="cls-1"/></g></svg>